<svg xmlns="http://www.w3.org/2000/svg" viewBox="0 0 251.22 251.23"><defs><style>.cls-1{fill:#f7931e;}.cls-2{fill:#fff;}</style></defs><g id="Calque_2" data-name="Calque 2"><g id="Calque_1-2" data-name="Calque 1"><path class="cls-1" d="M187.9,63.55a5.06,5.06,0,0,1-2.1,4.51h2.69V63.55Z"/><path class="cls-1" d="M125.61,0A125.11,125.11,0,0,0,89.35,5.32a123.15,123.15,0,0,0-24.78,10.5A125.62,125.62,0,1,0,235,187.47a124.13,124.13,0,0,0,10.7-24.78A125.69,125.69,0,0,0,125.61,0ZM200,91.06H184V68.75a5.31,5.31,0,0,1-.91.08,4.9,4.9,0,0,1-2.18-.49,3.39,3.39,0,0,1-.48-.17,1.83,1.83,0,0,1-.25-.06l-.26,0H161V65.55q3.39-1.06,6.9-2h-4.2v-2.7a184.54,184.54,0,0,1,24.79-5.92v8.62h8.28A134.48,134.48,0,0,1,205,85.47c.14.51.28,1,.41,1.53s.25.89.36,1.34h-6.46C199.56,89.24,199.81,90.15,200,91.06Z"/><path class="cls-2" d="M201.8,45.73h-152a3.61,3.61,0,0,0-3.61,3.61v97.37A58.1,58.1,0,0,0,104.43,205H201.8a3.61,3.61,0,0,0,3.61-3.61v-152A3.6,3.6,0,0,0,201.8,45.73ZM184,91.06V68.75a5.31,5.31,0,0,1-.91.08,4.9,4.9,0,0,1-2.18-.49,3.39,3.39,0,0,1-.48-.17,1.83,1.83,0,0,1-.25-.06l-.26,0H161V65.55q3.39-1.06,6.9-2c2.89-.78,5.87-1.46,8.89-2.1a4.56,4.56,0,0,1,4.54-3.21,5.48,5.48,0,0,1,1.25.16,6,6,0,0,1,.88.21,4.72,4.72,0,0,1,1.35.5c3.78,1.31,4.1,6.89,1,9h5.89a125.72,125.72,0,0,1,7.62,20.28c.25.9.5,1.81.73,2.72Z"/><path class="cls-1" d="M92,14v126H69V23.76A114.64,114.64,0,0,1,92,14Z"/><path class="cls-1" d="M237.05,160.06a115.35,115.35,0,0,1-9.93,23H108v-23Z"/><circle class="cls-1" cx="112.5" cy="139.56" r="43.5"/><path class="cls-2" d="M202.44,47.06H94.71a2.56,2.56,0,0,0-2.56,2.56v69a41.17,41.17,0,0,0,41.3,41.3h69a2.56,2.56,0,0,0,2.56-2.56V49.62A2.55,2.55,0,0,0,202.44,47.06ZM184,91.06V68.75a5.31,5.31,0,0,1-.91.08,4.9,4.9,0,0,1-2.18-.49,3.39,3.39,0,0,1-.48-.17,1.83,1.83,0,0,1-.25-.06l-.26,0H161V65.55q3.39-1.06,6.9-2c2.89-.78,5.87-1.46,8.89-2.1a4.56,4.56,0,0,1,4.54-3.21,5.48,5.48,0,0,1,1.25.16,6,6,0,0,1,.88.21,4.72,4.72,0,0,1,1.35.5c3.78,1.31,4.1,6.89,1,9h5.89a125.72,125.72,0,0,1,7.62,20.28c.25.9.5,1.81.73,2.72Z"/><path class="cls-1" d="M180.43,68.17a2.27,2.27,0,0,1-.25-.06l-.26,0H89v23h92V68.41c-.06,0-.11-.06-.16-.08Z"/><path class="cls-1" d="M133.32,108.06h39.83c2.13,0,3.85,1.37,3.85,3V128c0,1.68-1.72,3.05-3.85,3.05H136.06a3.69,3.69,0,0,1-3.8-2.57c-1.09-5.45-2-11.16-2.77-17.08C129.26,109.62,131.05,108.06,133.32,108.06Z"/><path class="cls-1" d="M184,72.86v53.4a4.8,4.8,0,0,1-4.8,4.8H165.8a4.8,4.8,0,0,1-4.8-4.8V72.86a4.8,4.8,0,0,1,4.8-4.8h13.4a4.66,4.66,0,0,1,1.8.36A4.79,4.79,0,0,1,184,72.86Z"/></g></g></svg>