<svg xmlns="http://www.w3.org/2000/svg" viewBox="0 0 1932.05 1092"><defs><style>.cls-1{fill:#fbb03b;opacity:0.82;}.cls-2{fill:#fff;}</style></defs><g id="Calque_2" data-name="Calque 2"><g id="Calque_1-2" data-name="Calque 1"><rect class="cls-1" x="11.05" width="1921" height="1092"/><polygon class="cls-2" points="1403.78 5.63 1203.78 320.63 1603.78 320.63 1403.78 5.63"/><polygon class="cls-2" points="1932.05 203.08 1932.05 320.26 1606.45 320.26 1806.45 5.26 1932.05 203.08"/><polygon class="cls-2" points="804.69 321.03 605.7 6.03 404.69 319.96 804.69 321.03 804.69 321.03"/><polygon class="cls-2" points="2.85 318.57 402.85 319.64 203.86 4.64 2.85 318.57"/><polygon class="cls-2" points="1886.19 1092 1722.71 1092 1804.48 963.48 1886.19 1092"/><polygon class="cls-2" points="1003.07 5.57 803.07 320.56 1203.07 320.56 1003.07 5.57"/><polygon class="cls-2" points="804.43 320.94 603.41 634.88 1003.41 635.94 804.43 320.94"/><polygon class="cls-2" points="1004.76 636.29 1404.76 637.35 1205.77 322.35 1004.76 636.29"/><polygon class="cls-2" points="200.84 635.1 11.05 635.15 11.05 336.58 200.84 635.1"/><polygon class="cls-2" points="404.75 320.58 203.73 634.52 603.73 635.58 404.75 320.58"/><polygon class="cls-2" points="1402.9 637.59 1802.9 638.65 1603.92 323.65 1402.9 637.59"/><polygon class="cls-2" points="1932.05 436.48 1932.05 637.07 1804.69 637.07 1932.05 436.48"/><polygon class="cls-2" points="1003.59 644.16 802.57 958.1 1202.57 959.16 1003.59 644.16"/><polygon class="cls-2" points="1203.92 959.51 1603.92 960.57 1404.93 645.57 1203.92 959.51"/><polygon class="cls-2" points="200.09 643.9 0 958.43 400 958.32 200.09 643.9"/><polygon class="cls-2" points="603.91 643.8 402.89 957.74 802.89 958.8 603.91 643.8"/><polygon class="cls-2" points="1932.05 851.03 1932.05 961.68 1602.07 960.81 1602.23 960.57 1603.08 959.24 1803.08 646.87 1932.05 851.03"/><polygon class="cls-2" points="297.78 1092 112.78 1092 198.33 958.38 205.9 946.56 213.36 958.37 297.78 1092"/><polygon class="cls-2" points="613.77 958.3 698.23 1092 515.03 1092 600.66 958.26 607.25 947.97 613.77 958.3"/><polygon class="cls-2" points="1095.55 1092 914 1092 999.4 958.62 1005.39 949.27 1011.32 958.65 1095.55 1092"/><polygon class="cls-2" points="1497.8 1092 1314.54 1092 1398.34 960.03 1406.17 947.69 1414.03 960.07 1497.8 1092"/></g></g></svg>