<svg xmlns="http://www.w3.org/2000/svg" viewBox="0 0 251.22 251.23"><defs><style>.cls-1{fill:#f7931e;}.cls-2{fill:#fff;}</style></defs><g id="Calque_2" data-name="Calque 2"><g id="Calque_1-2" data-name="Calque 1"><path class="cls-1" d="M184,63.55v4.51h4.49V63.55ZM125.61,0A125.11,125.11,0,0,0,89.35,5.32a123.15,123.15,0,0,0-24.78,10.5A125.62,125.62,0,1,0,235,187.47a124.13,124.13,0,0,0,10.7-24.78A125.69,125.69,0,0,0,125.61,0Zm73.7,88.34c.25.9.5,1.81.73,2.72H184v-23H161V65.55q3.39-1.06,6.9-2h-4.2v-2.7a184.54,184.54,0,0,1,24.79-5.92v8.62h8.28A134.48,134.48,0,0,1,205,85.47c.14.51.28,1,.41,1.53s.25.89.36,1.34ZM188.49,63.55H184v4.51h4.49Zm-4.49,0v4.51h4.49V63.55Z"/><path class="cls-2" d="M201.8,45.73h-152a3.61,3.61,0,0,0-3.61,3.61v97.37A58.1,58.1,0,0,0,104.43,205H201.8a3.61,3.61,0,0,0,3.61-3.61v-152A3.6,3.6,0,0,0,201.8,45.73ZM200,91.06H184v-23H161V65.55q3.39-1.06,6.9-2c5.17-1.39,10.55-2.55,16.1-3.49v8h7.69a125.72,125.72,0,0,1,7.62,20.28C199.56,89.24,199.81,90.15,200,91.06Z"/><path class="cls-1" d="M92,14v126H69V23.76A114.64,114.64,0,0,1,92,14Z"/><path class="cls-1" d="M237.05,160.06a115.35,115.35,0,0,1-9.93,23H108v-23Z"/><circle class="cls-1" cx="112.5" cy="139.56" r="43.5"/><path class="cls-2" d="M202.44,47.06H94.71a2.56,2.56,0,0,0-2.56,2.56v69a41.17,41.17,0,0,0,41.3,41.3h69a2.56,2.56,0,0,0,2.56-2.56V49.62A2.55,2.55,0,0,0,202.44,47.06Zm-2.4,44H184v-23H161V65.55q3.39-1.06,6.9-2c5.17-1.39,10.55-2.55,16.1-3.49v8h7.69a125.72,125.72,0,0,1,7.62,20.28C199.56,89.24,199.81,90.15,200,91.06Z"/><rect class="cls-1" x="89" y="68.06" width="92" height="23"/><path class="cls-1" d="M133.32,108.06h39.83c2.13,0,3.85,1.37,3.85,3V128c0,1.68-1.72,3.05-3.85,3.05H136.06a3.69,3.69,0,0,1-3.8-2.57c-1.09-5.45-2-11.16-2.77-17.08C129.26,109.62,131.05,108.06,133.32,108.06Z"/><path class="cls-1" d="M184,72.86v53.4a4.8,4.8,0,0,1-4.8,4.8H165.8a4.8,4.8,0,0,1-4.8-4.8V72.86a4.8,4.8,0,0,1,4.8-4.8h13.4a4.66,4.66,0,0,1,1.8.36A4.79,4.79,0,0,1,184,72.86Z"/></g></g></svg>