<svg id="Calque_1" data-name="Calque 1" xmlns="http://www.w3.org/2000/svg" viewBox="0 0 1920 1080"><defs><style>.cls-1{fill:#fbb03b;opacity:0.82;}.cls-2{fill:#fff;}</style></defs><rect class="cls-1" x="5" y="-5.76" width="1921" height="1092"/><polygon class="cls-2" points="1397.74 -0.13 1197.74 314.87 1597.74 314.87 1397.74 -0.13"/><polygon class="cls-2" points="1926 197.32 1926 314.5 1600.4 314.5 1800.4 -0.5 1926 197.32"/><polygon class="cls-2" points="798.64 315.27 599.65 0.27 398.64 314.2 798.64 315.27 798.64 315.27"/><polygon class="cls-2" points="-3.2 312.81 396.8 313.88 197.81 -1.12 -3.2 312.81"/><polygon class="cls-2" points="1880.14 1086.24 1716.66 1086.24 1798.43 957.72 1880.14 1086.24"/><polygon class="cls-2" points="997.02 -0.2 797.02 314.81 1197.02 314.81 997.02 -0.2"/><polygon class="cls-2" points="798.38 315.18 597.37 629.12 997.37 630.18 798.38 315.18"/><polygon class="cls-2" points="998.71 630.53 1398.71 631.59 1199.73 316.59 998.71 630.53"/><polygon class="cls-2" points="194.79 629.34 5 629.39 5 330.82 194.79 629.34"/><polygon class="cls-2" points="398.7 314.82 197.69 628.76 597.69 629.82 398.7 314.82"/><polygon class="cls-2" points="1396.86 631.83 1796.86 632.89 1597.87 317.89 1396.86 631.83"/><polygon class="cls-2" points="1926 430.72 1926 631.31 1798.64 631.31 1926 430.72"/><polygon class="cls-2" points="997.54 638.4 796.53 952.34 1196.53 953.4 997.54 638.4"/><polygon class="cls-2" points="1197.87 953.75 1597.87 954.81 1398.89 639.81 1197.87 953.75"/><polygon class="cls-2" points="194.05 638.14 -6.05 952.67 393.95 952.56 194.05 638.14"/><polygon class="cls-2" points="597.86 638.04 396.85 951.98 796.85 953.04 597.86 638.04"/><polygon class="cls-2" points="1926 845.27 1926 955.92 1596.02 955.05 1596.18 954.81 1597.03 953.48 1797.03 641.11 1926 845.27"/><polygon class="cls-2" points="291.73 1086.24 106.73 1086.24 192.28 952.62 199.85 940.8 207.31 952.61 291.73 1086.24"/><polygon class="cls-2" points="607.72 952.54 692.18 1086.24 508.98 1086.24 594.61 952.5 601.2 942.21 607.72 952.54"/><polygon class="cls-2" points="1089.5 1086.24 907.95 1086.24 993.35 952.86 999.34 943.51 1005.27 952.89 1089.5 1086.24"/><polygon class="cls-2" points="1491.75 1086.24 1308.49 1086.24 1392.29 954.27 1400.12 941.93 1407.98 954.31 1491.75 1086.24"/></svg>